<?xml version="1.0" encoding="utf-8"?>
<!-- Generator: Adobe Illustrator 22.0.0, SVG Export Plug-In . SVG Version: 6.00 Build 0)  -->
<svg version="1.1" id="图层_1" xmlns="http://www.w3.org/2000/svg" xmlns:xlink="http://www.w3.org/1999/xlink" x="0px" y="0px"
	 viewBox="0 0 1700.8 1700.8" style="enable-background:new 0 0 1700.8 1700.8;" xml:space="preserve">
<g>
	<g>
		<path d="M853.3,1560.1c-391.3,0-709.7-318.4-709.7-709.7S462,140.7,853.3,140.7s709.7,318.4,709.7,709.7
			S1244.7,1560.1,853.3,1560.1z M853.3,204.9c-355.9,0-645.5,289.6-645.5,645.5s289.6,645.5,645.5,645.5s645.5-289.6,645.5-645.5
			S1209.3,204.9,853.3,204.9z"/>
	</g>
</g>
<g>
	<g>
		<path d="M286,479.8"/>
	</g>
</g>
<g>
	<g>
		<rect x="263.1" y="451" width="45.9" height="769.9"/>
	</g>
</g>
<g>
	<g>
		<rect x="562.6" y="249.7" width="45.9" height="1247.5"/>
	</g>
</g>
<g>
	<g>
		<rect x="139.3" y="838.2" transform="matrix(0.3403 -0.9403 0.9403 0.3403 -271.5617 1335.1721)" width="1352.8" height="45.9"/>
	</g>
</g>
<g>
	<g>
		<rect x="1226.8" y="300.8" width="45.9" height="1099.2"/>
	</g>
</g>
<g>
	<g>
		<rect x="300.9" y="708.2" width="1247.5" height="45.9"/>
	</g>
</g>
<g>
	<g>
		<rect x="738.7" y="1051" width="511" height="45.9"/>
	</g>
</g>
<g>
	<g>
		<path d="M738.7,1074h511v333.6c0,0-150.4,143.9-396.4,120.5c-246-23.4-255.1-65.7-255.1-65.7L738.7,1074z"/>
	</g>
	<g>
		<path d="M906.6,1535.1c-17.4,0-35.3-0.8-53.7-2.6c-242.3-23.1-258.2-64.6-259.2-69.3l-0.3-1.3l142.1-392.6h518.8v340.1l-1.4,1.4
			C1251.5,1412.2,1120.3,1535.1,906.6,1535.1z M603.1,1462.1c3.8,5.7,35.6,40.9,250.6,61.3c228.4,21.7,375.5-103.7,391.4-117.9v-327
			H741.9L603.1,1462.1z"/>
	</g>
</g>
</svg>
