<?xml version="1.0" encoding="utf-8"?>
<!-- Generator: Adobe Illustrator 22.0.0, SVG Export Plug-In . SVG Version: 6.00 Build 0)  -->
<svg version="1.1" id="图层_1" xmlns="http://www.w3.org/2000/svg" xmlns:xlink="http://www.w3.org/1999/xlink" x="0px" y="0px"
	 viewBox="0 0 1700.8 1700.8" style="enable-background:new 0 0 1700.8 1700.8;" xml:space="preserve">
<style type="text/css">
	.st0{stroke:#000000;stroke-width:0.25;stroke-miterlimit:10;}
</style>
<g>
	<g>
		<g>
			<path d="M181.7,469.3c-68,0-123.3-55.3-123.3-123.3s55.3-123.3,123.3-123.3S305.1,278,305.1,346S249.7,469.3,181.7,469.3z
				 M181.7,233.9c-61.8,0-112.1,50.3-112.1,112.1s50.3,112.1,112.1,112.1S293.9,407.9,293.9,346S243.6,233.9,181.7,233.9z"/>
		</g>
	</g>
	<g>
		<path d="M525.2,469.3c-68,0-123.3-55.3-123.3-123.3s55.3-123.3,123.3-123.3S648.5,278,648.5,346S593.2,469.3,525.2,469.3z
			 M525.2,233.9c-61.8,0-112.1,50.3-112.1,112.1s50.3,112.1,112.1,112.1S637.4,407.9,637.4,346S587,233.9,525.2,233.9z"/>
	</g>
	<g>
		<path d="M864.2,469.3c-68,0-123.3-55.3-123.3-123.3s55.3-123.3,123.3-123.3S987.5,278,987.5,346S932.2,469.3,864.2,469.3z
			 M864.2,233.9c-61.8,0-112.1,50.3-112.1,112.1s50.3,112.1,112.1,112.1c61.8,0,112.2-50.3,112.2-112.1S926.1,233.9,864.2,233.9z"/>
	</g>
	<g>
		<g>
		</g>
	</g>
	<g>
		<g>
		</g>
	</g>
	<g>
	</g>
	<g>
		<path d="M181.7,807.5c-68,0-123.3-55.3-123.3-123.3s55.3-123.3,123.3-123.3s123.3,55.3,123.3,123.3S249.7,807.5,181.7,807.5z
			 M181.7,572c-61.8,0-112.1,50.3-112.1,112.1s50.3,112.1,112.1,112.1S293.9,746,293.9,684.2S243.6,572,181.7,572z"/>
	</g>
	<g>
		<path d="M181.7,1146c-68,0-123.3-55.3-123.3-123.3s55.3-123.3,123.3-123.3s123.3,55.3,123.3,123.3S249.7,1146,181.7,1146z
			 M181.7,910.6c-61.8,0-112.1,50.3-112.1,112.1s50.3,112.1,112.1,112.1s112.1-50.3,112.1-112.1S243.6,910.6,181.7,910.6z"/>
	</g>
	<g>
	</g>
	<g>
	</g>
	<g>
	</g>
	<g>
	</g>
	<g>
	</g>
	<g>
	</g>
	<g>
		<path d="M1203.3,469.3c-68,0-123.3-55.3-123.3-123.3s55.3-123.3,123.3-123.3S1326.6,278,1326.6,346S1271.3,469.3,1203.3,469.3z
			 M1203.3,233.9c-61.8,0-112.2,50.3-112.2,112.1s50.3,112.1,112.2,112.1c61.8,0,112.1-50.3,112.1-112.1S1265.2,233.9,1203.3,233.9z
			"/>
	</g>
	<g>
		<path d="M1542.4,469.3c-68,0-123.3-55.3-123.3-123.3s55.3-123.3,123.3-123.3S1665.8,278,1665.8,346S1610.4,469.3,1542.4,469.3z
			 M1542.4,233.9c-61.8,0-112.2,50.3-112.2,112.1s50.3,112.1,112.2,112.1c61.8,0,112.1-50.3,112.1-112.1S1604.3,233.9,1542.4,233.9z
			"/>
	</g>
	<g>
		<path d="M525.2,806.6c-68,0-123.3-55.3-123.3-123.3S457.2,560,525.2,560s123.3,55.3,123.3,123.3S593.2,806.6,525.2,806.6z
			 M525.2,571.2c-61.8,0-112.1,50.3-112.1,112.1s50.3,112.1,112.1,112.1s112.1-50.3,112.1-112.1S587,571.2,525.2,571.2z"/>
	</g>
	<g>
		<path d="M864.1,806.6c-68,0-123.3-55.3-123.3-123.3S796.1,560,864.1,560s123.3,55.3,123.3,123.3S932.1,806.6,864.1,806.6z
			 M864.1,571.2c-61.8,0-112.2,50.3-112.2,112.1s50.3,112.1,112.2,112.1c61.8,0,112.1-50.3,112.1-112.1S926,571.2,864.1,571.2z"/>
	</g>
	<g>
		<path d="M1203.3,806.6c-68,0-123.3-55.3-123.3-123.3S1135.3,560,1203.3,560s123.3,55.3,123.3,123.3S1271.3,806.6,1203.3,806.6z
			 M1203.3,571.2c-61.8,0-112.1,50.3-112.1,112.1s50.3,112.1,112.1,112.1c61.8,0,112.2-50.3,112.2-112.1S1265.1,571.2,1203.3,571.2z
			"/>
	</g>
	<g>
		<path d="M1542.4,806.6c-68,0-123.3-55.3-123.3-123.3S1474.5,560,1542.4,560s123.3,55.3,123.3,123.3S1610.4,806.6,1542.4,806.6z
			 M1542.4,571.2c-61.8,0-112.2,50.3-112.2,112.1s50.3,112.1,112.2,112.1c61.8,0,112.1-50.3,112.1-112.1S1604.3,571.2,1542.4,571.2z
			"/>
	</g>
	<g>
		<path d="M1542.4,1146c-68,0-123.3-55.3-123.3-123.3s55.3-123.3,123.3-123.3s123.3,55.3,123.3,123.3S1610.4,1146,1542.4,1146z
			 M1542.4,910.6c-61.8,0-112.2,50.3-112.2,112.1s50.3,112.1,112.2,112.1c61.8,0,112.1-50.3,112.1-112.1S1604.3,910.6,1542.4,910.6z
			"/>
	</g>
	<g>
		<path d="M1203.3,1145c-68,0-123.3-55.3-123.3-123.3s55.3-123.3,123.3-123.3s123.3,55.3,123.3,123.3S1271.3,1145,1203.3,1145z
			 M1203.3,909.5c-61.8,0-112.1,50.3-112.1,112.1s50.3,112.1,112.1,112.1c61.8,0,112.2-50.3,112.2-112.1S1265.1,909.5,1203.3,909.5z
			"/>
	</g>
	<g>
		<path d="M864.2,1146c-68,0-123.3-55.3-123.3-123.3s55.3-123.3,123.3-123.3s123.3,55.3,123.3,123.3S932.2,1146,864.2,1146z
			 M864.2,910.6c-61.8,0-112.1,50.3-112.1,112.1s50.3,112.1,112.1,112.1c61.8,0,112.2-50.3,112.2-112.1S926.1,910.6,864.2,910.6z"/>
	</g>
	<g>
		<path d="M525.2,1146c-68,0-123.3-55.3-123.3-123.3s55.3-123.3,123.3-123.3s123.3,55.3,123.3,123.3S593.2,1146,525.2,1146z
			 M525.2,910.6c-61.8,0-112.1,50.3-112.1,112.1s50.3,112.1,112.1,112.1s112.1-50.3,112.1-112.1S587,910.6,525.2,910.6z"/>
	</g>
	<g>
		<path d="M181.7,1484.4c-68,0-123.3-55.3-123.3-123.3s55.3-123.3,123.3-123.3s123.3,55.3,123.3,123.3S249.7,1484.4,181.7,1484.4z
			 M181.7,1248.9c-61.8,0-112.1,50.3-112.1,112.1c0,61.8,50.3,112.2,112.1,112.2s112.1-50.3,112.1-112.2
			C293.9,1299.2,243.6,1248.9,181.7,1248.9z"/>
	</g>
	<g>
		<path d="M525.2,1483.3c-68,0-123.3-55.3-123.3-123.3s55.3-123.3,123.3-123.3S648.5,1292,648.5,1360S593.2,1483.3,525.2,1483.3z
			 M525.2,1247.9c-61.8,0-112.1,50.3-112.1,112.1c0,61.8,50.3,112.1,112.1,112.1s112.1-50.3,112.1-112.1
			C637.4,1298.2,587,1247.9,525.2,1247.9z"/>
	</g>
	<g>
		<path d="M864.2,1483.3c-68,0-123.3-55.3-123.3-123.3s55.3-123.3,123.3-123.3S987.5,1292,987.5,1360S932.2,1483.3,864.2,1483.3z
			 M864.2,1247.9c-61.8,0-112.1,50.3-112.1,112.1c0,61.8,50.3,112.1,112.1,112.1c61.8,0,112.2-50.3,112.2-112.1
			C976.4,1298.2,926.1,1247.9,864.2,1247.9z"/>
	</g>
	<g>
		<path d="M1203.3,1484.4c-68,0-123.3-55.3-123.3-123.3s55.3-123.3,123.3-123.3s123.3,55.3,123.3,123.3S1271.3,1484.4,1203.3,1484.4
			z M1203.3,1248.9c-61.8,0-112.1,50.3-112.1,112.1c0,61.8,50.3,112.2,112.1,112.2c61.8,0,112.2-50.3,112.2-112.2
			C1315.4,1299.2,1265.1,1248.9,1203.3,1248.9z"/>
	</g>
	<g>
		<path d="M1542.4,1483.3c-68,0-123.3-55.3-123.3-123.3s55.3-123.3,123.3-123.3s123.3,55.3,123.3,123.3S1610.4,1483.3,1542.4,1483.3
			z M1542.4,1247.9c-61.8,0-112.2,50.3-112.2,112.1c0,61.8,50.3,112.1,112.2,112.1c61.8,0,112.1-50.3,112.1-112.1
			C1654.6,1298.2,1604.3,1247.9,1542.4,1247.9z"/>
	</g>
	<g>
		<g>
			<path d="M83.2,281.6"/>
		</g>
	</g>
	<g>
		<g>
			<rect x="79.2" y="276.6" width="8" height="133.8"/>
		</g>
	</g>
	<g>
		<g>
			<rect x="131.2" y="241.6" width="8" height="216.7"/>
		</g>
	</g>
	<g>
		<g>
			<rect x="57.7" y="343.9" transform="matrix(0.3403 -0.9403 0.9403 0.3403 -211.5299 394.2642)" width="235" height="8"/>
		</g>
	</g>
	<g>
		<g>
			<rect x="246.6" y="250.5" width="8" height="191"/>
		</g>
	</g>
	<g>
		<g>
			<rect x="85.8" y="321.3" width="216.7" height="8"/>
		</g>
	</g>
	<g>
		<g>
			<rect x="161.8" y="380.9" width="88.8" height="8"/>
		</g>
	</g>
	<g>
		<line x1="459.4" y1="248.4" x2="459.4" y2="441.5"/>
		<rect x="455.4" y="248.4" width="8" height="193.1"/>
	</g>
	<g>
		<line x1="594.1" y1="250.5" x2="457.4" y2="250.5"/>
		<rect x="457.4" y="246.5" width="136.7" height="8"/>
	</g>
	<g>
		<line x1="595.1" y1="250.2" x2="595.1" y2="441.5"/>
		<rect x="591.1" y="250.2" width="8" height="191.3"/>
	</g>
	<g>
		<line x1="457.4" y1="346" x2="594.1" y2="255.9"/>
		<rect x="443.9" y="297" transform="matrix(0.8349 -0.5504 0.5504 0.8349 -78.8485 339.0555)" width="163.7" height="8"/>
	</g>
	<g>
		<line x1="594.1" y1="433.8" x2="457.4" y2="346"/>
		<rect x="521.7" y="308.7" transform="matrix(0.5402 -0.8415 0.8415 0.5402 -86.3785 621.6885)" width="8" height="162.4"/>
	</g>
	<g>
		<line x1="865" y1="229.9" x2="950.9" y2="428.2"/>
		<rect x="904" y="221" transform="matrix(0.9177 -0.3972 0.3972 0.9177 -55.9991 387.6903)" width="8" height="216.1"/>
	</g>
	<g>
		<line x1="864.2" y1="233.5" x2="778.4" y2="431.8"/>
		<rect x="713.3" y="328.7" transform="matrix(0.3973 -0.9177 0.9177 0.3973 189.7401 954.1942)" width="216.1" height="8"/>
	</g>
	<g>
		<line x1="1570.2" y1="236.4" x2="1445.9" y2="413.4"/>
		<rect x="1399.9" y="320.9" transform="matrix(0.5746 -0.8184 0.8184 0.5746 375.5848 1372.3673)" width="216.3" height="8"/>
	</g>
	<g>
		<line x1="1461.1" y1="266.1" x2="1631.2" y2="266.1"/>
		<rect x="1461.1" y="262.1" width="170.1" height="8"/>
	</g>
	<g>
		<line x1="1528.7" y1="300.3" x2="1528.7" y2="465.5"/>
		<rect x="1524.7" y="300.3" width="8" height="165.3"/>
	</g>
	<g>
		<line x1="1651" y1="300.3" x2="1524.4" y2="300.3"/>
		<rect x="1524.4" y="296.3" width="126.6" height="8"/>
	</g>
	<g>
		<line x1="1528.7" y1="337.3" x2="1656.5" y2="337.3"/>
		<rect x="1528.7" y="333.3" width="127.8" height="8"/>
	</g>
	<g>
		<line x1="1530.3" y1="380" x2="1656.5" y2="380"/>
		<rect x="1530.3" y="376.1" width="126.2" height="8"/>
	</g>
	<g>
		<line x1="1114.2" y1="266.1" x2="1114.2" y2="421.6"/>
		<rect x="1110.2" y="266.1" width="8" height="155.6"/>
	</g>
	<g>
		<line x1="1167.7" y1="228.3" x2="1167.7" y2="457.9"/>
		<rect x="1163.9" y="228.3" width="7.6" height="229.6"/>
	</g>
	<g>
		<line x1="1254.6" y1="240" x2="1254.6" y2="453.7"/>
		<rect x="1250.6" y="240" width="8" height="213.6"/>
	</g>
	<g>
		<line x1="1118.6" y1="313.2" x2="1321.1" y2="313.2"/>
		<rect x="1118.6" y="310.1" width="202.5" height="6.3"/>
	</g>
	<g>
		<line x1="1168.2" y1="310.7" x2="1253.3" y2="442.8"/>
		<polygon points="1250.2,444.9 1165.2,312.8 1171.2,308.6 1256.3,440.7 		"/>
	</g>
	<g>
		<line x1="117.5" y1="581.7" x2="117.5" y2="786.7"/>
		<rect x="113.6" y="581.7" width="8" height="205"/>
	</g>
	<g>
		<line x1="83.7" y1="616.1" x2="274.2" y2="616.1"/>
		<rect x="83.7" y="612.1" width="190.5" height="8"/>
	</g>
	<g>
		<line x1="76.8" y1="740.3" x2="291.9" y2="657.7"/>
		<rect x="69.2" y="695" transform="matrix(0.9336 -0.3584 0.3584 0.9336 -238.2573 112.4987)" width="230.4" height="8"/>
	</g>
	<g>
		<line x1="143.2" y1="618.1" x2="143.2" y2="772"/>
		<rect x="139.2" y="618.1" width="8" height="153.9"/>
	</g>
	<g>
		<line x1="117.5" y1="772" x2="256.7" y2="772"/>
		<rect x="117.5" y="768" width="139.2" height="8"/>
	</g>
	<g>
		<line x1="212.8" y1="618.1" x2="212.8" y2="686.5"/>
		<rect x="208.8" y="618.1" width="8" height="68.3"/>
	</g>
	<g>
		<line x1="456.6" y1="590.5" x2="597.6" y2="590.5"/>
		<rect x="456.6" y="586.5" width="141" height="8"/>
	</g>
	<g>
		<line x1="429.3" y1="618.1" x2="623.4" y2="618.1"/>
		<rect x="429.3" y="614.2" width="194.2" height="8"/>
	</g>
	<g>
		<line x1="407.6" y1="678.4" x2="549" y2="678.4"/>
		<rect x="407.6" y="674.4" width="141.4" height="8"/>
	</g>
	<g>
		<line x1="549" y1="593.3" x2="549" y2="681.6"/>
		<rect x="545" y="593.3" width="8" height="88.3"/>
	</g>
	<g>
		<line x1="507" y1="619.8" x2="507" y2="801.1"/>
		<rect x="503.1" y="619.8" width="8" height="181.3"/>
	</g>
	<g>
		<line x1="459.4" y1="778.5" x2="595.1" y2="778.5"/>
		<rect x="459.4" y="774.5" width="135.6" height="8"/>
	</g>
	<g>
		<line x1="508.7" y1="744.3" x2="626.5" y2="744.3"/>
		<rect x="508.7" y="740.3" width="117.8" height="8"/>
	</g>
	<g>
		<line x1="584" y1="590.5" x2="584" y2="712.6"/>
		<rect x="580" y="590.5" width="8" height="122.1"/>
	</g>
	<g>
		<line x1="642.9" y1="710.4" x2="579.9" y2="710.4"/>
		<rect x="579.9" y="706.4" width="63" height="8"/>
	</g>
	<g>
		<line x1="507" y1="683.3" x2="445.8" y2="770.2"/>
		<rect x="423.3" y="722.8" transform="matrix(0.576 -0.8174 0.8174 0.576 -392.1175 697.5897)" width="106.3" height="8"/>
	</g>
	<g>
		<line x1="824.1" y1="577" x2="824.1" y2="744.3"/>
		<rect x="820.1" y="577" width="8" height="167.3"/>
	</g>
	<g>
		<line x1="758.2" y1="637.5" x2="917.3" y2="637.5"/>
		<rect x="758.2" y="633.5" width="159.1" height="8"/>
	</g>
	<g>
		<line x1="912.4" y1="740.7" x2="821.3" y2="740.7"/>
		<rect x="821.3" y="736.7" width="91.1" height="8"/>
	</g>
	<g>
		<line x1="912.4" y1="636.1" x2="912.4" y2="744.3"/>
		<rect x="908.5" y="636.1" width="8" height="108.3"/>
	</g>
	<g>
		<line x1="825.7" y1="593.3" x2="943" y2="593.3"/>
		<rect x="825.7" y="589.3" width="117.2" height="8"/>
	</g>
	<g>
		<line x1="951.9" y1="608.4" x2="951.9" y2="762.6"/>
		<rect x="947.9" y="608.4" width="8" height="154.3"/>
	</g>
	<g>
		<line x1="775.7" y1="637.5" x2="775.7" y2="762.6"/>
		<rect x="771.7" y="637.5" width="8" height="125.2"/>
	</g>
	<g>
		<rect x="1199.3" y="568.5" width="8" height="92"/>
	</g>
	<g>
		<rect x="1091.5" y="654.9" width="229.5" height="8"/>
	</g>
	<g>
		<rect x="1104.6" y="621.9" width="201.9" height="8"/>
	</g>
	<g>
		<rect x="1125.7" y="586" transform="matrix(0.9943 -0.1066 0.1066 0.9943 -56.0995 130.8116)" width="138.9" height="8"/>
	</g>
	<g>
		<rect x="1086.7" y="713" width="227.4" height="8"/>
	</g>
	<g>
		<rect x="1154.7" y="675.1" width="8" height="114"/>
	</g>
	<g>
		<rect x="1155.8" y="675.2" width="99.3" height="8"/>
	</g>
	<g>
		<rect x="1251.2" y="675.1" width="8" height="111.9"/>
	</g>
	<g>
		<rect x="1465.2" y="593" width="156.8" height="8"/>
	</g>
	<g>
		<rect x="1426.9" y="656.5" width="229.5" height="8"/>
	</g>
	<g>
		
			<rect x="1510.3" y="624.7" transform="matrix(1.152267e-02 -0.9999 0.9999 1.152267e-02 895.6241 2163.4604)" width="63.5" height="8"/>
	</g>
	<g>
		<rect x="1437" y="713" transform="matrix(0.541 -0.841 0.841 0.541 88.3008 1595.8002)" width="138.3" height="8"/>
	</g>
	<g>
		<rect x="1575.9" y="649.5" transform="matrix(0.841 -0.541 0.541 0.841 -137.6207 968.9262)" width="8" height="138.3"/>
	</g>
	<g>
		<rect x="1390.4" y="974.6" transform="matrix(0.5751 -0.8181 0.8181 0.5751 -171.8445 1626.2737)" width="178.5" height="8"/>
	</g>
	<g>
		<rect x="1422.5" y="1016.3" transform="matrix(0.5751 -0.8181 0.8181 0.5751 -179.4749 1695.0157)" width="238.9" height="8"/>
	</g>
	<g>
		<rect x="1516" y="922.9" width="92.7" height="8"/>
	</g>
	<g>
		<rect x="1577.5" y="1007" transform="matrix(0.7576 -0.6527 0.6527 0.7576 -313.4934 1290.9305)" width="8" height="121.2"/>
	</g>
	<g>
		<rect x="1087.1" y="998.3" width="233.9" height="8"/>
	</g>
	<g>
		<rect x="1144.1" y="920.6" width="8" height="205.1"/>
	</g>
	<g>
		<rect x="1135.1" y="957.4" transform="matrix(0.8163 -0.5776 0.5776 0.8163 -333.8287 873.1735)" width="141.4" height="8"/>
	</g>
	<g>
		<rect x="1200.9" y="979.6" transform="matrix(0.7245 -0.6892 0.6892 0.7245 -400.0315 1122.9542)" width="8" height="164.8"/>
	</g>
	<g>
		<rect x="860.1" y="906.7" width="8" height="116"/>
	</g>
	<g>
		<rect x="767.1" y="1059.9" transform="matrix(0.6958 -0.7182 0.7182 0.6958 -512.8977 916.8998)" width="117.6" height="8"/>
	</g>
	<g>
		<rect x="898.5" y="1005.1" transform="matrix(0.7182 -0.6958 0.6958 0.7182 -486.0048 927.7404)" width="8" height="117.6"/>
	</g>
	<g>
		<rect x="463.3" y="918.5" width="128" height="8"/>
	</g>
	<g>
		<rect x="431.7" y="947.2" width="185.6" height="8"/>
	</g>
	<g>
		<rect x="427.7" y="949.5" width="8" height="142.1"/>
	</g>
	<g>
		<rect x="431.7" y="1026.9" width="211.1" height="8"/>
	</g>
	<g>
		<rect x="431.7" y="987.4" width="206.2" height="8"/>
	</g>
	<g>
		<rect x="420" y="1054.9" transform="matrix(0.7071 -0.7071 0.7071 0.7071 -613.5734 636.542)" width="83.2" height="8"/>
	</g>
	<g>
		<rect x="533.8" y="1014" transform="matrix(0.7071 -0.7071 0.7071 0.7071 -604.6674 695.9637)" width="8" height="127.8"/>
	</g>
	<g>
		<rect x="572.9" y="1016.3" transform="matrix(0.7071 -0.7071 0.7071 0.7071 -584.9096 720.2169)" width="8" height="99.8"/>
	</g>
	<g>
		<rect x="486" y="1036.6" width="8" height="97.5"/>
	</g>
	<g>
		<rect x="489.9" y="1122.1" width="91.6" height="8"/>
	</g>
	<g>
		<rect x="520.5" y="922.5" width="8" height="26.9"/>
	</g>
	<g>
		<rect x="152.2" y="910.4" width="8" height="228.3"/>
	</g>
	<g>
		<rect x="37.4" y="962.6" transform="matrix(0.6344 -0.773 0.773 0.6344 -706.922 438.5158)" width="145.3" height="8"/>
	</g>
	<g>
		<rect x="158.2" y="945.5" width="118" height="8"/>
	</g>
	<g>
		<rect x="154.6" y="998.8" width="144.9" height="8"/>
	</g>
	<g>
		<rect x="158.2" y="1053.3" width="135" height="8"/>
	</g>
	<g>
		<rect x="181.9" y="1078.1" transform="matrix(0.5597 -0.8287 0.8287 0.5597 -842.9438 645.4462)" width="8" height="75.6"/>
	</g>
	<g>
		<rect x="177.8" y="1248.6" width="8" height="229.1"/>
	</g>
	<g>
		<rect x="60.1" y="1357.1" width="239.3" height="8"/>
	</g>
	<g>
		<rect x="45.2" y="1301.2" transform="matrix(0.7071 -0.7071 0.7071 0.7071 -886.2374 470.8)" width="160" height="8"/>
	</g>
	<g>
		<rect x="426.5" y="1291.9" width="197.6" height="8"/>
	</g>
	<g>
		<rect x="411.4" y="1338.3" width="231.5" height="8"/>
	</g>
	<g>
		<rect x="411.4" y="1371.6" width="231.5" height="8"/>
	</g>
	<g>
		<rect x="521.2" y="1248.6" width="8" height="229.1"/>
	</g>
	<g>
		<rect x="438.3" y="1431.1" width="177.9" height="8"/>
	</g>
	<g>
		<rect x="1110.6" y="1283.6" width="8" height="155.1"/>
	</g>
	<g>
		<rect x="1093.4" y="1314.8" width="62.1" height="8"/>
	</g>
	<g>
		<rect x="1151.4" y="1255.1" width="8" height="213.5"/>
	</g>
	<g>
		<rect x="1114.6" y="1434.7" width="175.2" height="8"/>
	</g>
	<g>
		<rect x="1242.6" y="1400" width="8" height="68.6"/>
	</g>
	<g>
		<rect x="1175.4" y="1398.1" width="137.1" height="8"/>
	</g>
	<g>
		<rect x="1171.4" y="1251.9" width="8" height="153.4"/>
	</g>
	<g>
		<rect x="1153.3" y="1339.9" transform="matrix(0.7071 -0.7071 0.7071 0.7071 -588.3936 1267.2985)" width="164.5" height="8"/>
	</g>
	<g>
		<rect x="1238.1" y="1242.3" transform="matrix(0.7071 -0.7071 0.7071 0.7071 -581.3513 1269.7917)" width="8" height="188.7"/>
	</g>
	<g>
		
			<rect x="1175.4" y="1265.3" transform="matrix(0.9999 -1.406111e-02 1.406111e-02 0.9999 -17.726 17.3393)" width="97.7" height="8"/>
	</g>
	<g>
		<rect x="1449.7" y="1281.2" width="8" height="155.1"/>
	</g>
	<g>
		<rect x="1434" y="1312.3" width="62.1" height="8"/>
	</g>
	<g>
		<rect x="1492.1" y="1252.7" width="8" height="213.5"/>
	</g>
	<g>
		<rect x="1455.3" y="1432.3" width="175.2" height="8"/>
	</g>
	<g>
		<rect x="1517" y="1248.2" width="8" height="49.2"/>
	</g>
	<g>
		<rect x="1517.7" y="1293.5" width="122.9" height="8"/>
	</g>
	<g>
		<rect x="1517.7" y="1311.5" width="130.7" height="8"/>
	</g>
	<g>
		<rect x="1517" y="1315.5" width="8" height="163.3"/>
	</g>
	<g>
		<rect x="1570.3" y="1295.4" transform="matrix(0.7495 -0.662 0.662 0.7495 -516.5033 1386.7408)" width="8" height="161.1"/>
	</g>
	<g>
		<rect x="746.4" y="1380.2" width="232.2" height="8"/>
	</g>
	<g>
		<rect x="811.8" y="1252.7" width="8" height="131.5"/>
	</g>
	<g>
		<rect x="913.3" y="1255.1" width="8" height="129.1"/>
	</g>
	<g>
		<rect x="767.7" y="1406.3" transform="matrix(0.5476 -0.8367 0.8367 0.5476 -818.6465 1306.2582)" width="62.2" height="8"/>
	</g>
	<g>
		<rect x="927.4" y="1379.1" transform="matrix(0.8368 -0.5475 0.5475 0.8368 -620.1004 740.0236)" width="8" height="62.2"/>
	</g>
	<g>
		<rect x="764.5" y="1293.5" width="203.9" height="8"/>
	</g>
	<g>
		<g>
			<path d="M161.8,384.9h88.8v58c0,0-26.1,25-68.9,20.9c-42.7-4.1-44.3-11.4-44.3-11.4L161.8,384.9z"/>
		</g>
		<g>
			<path d="M191,465c-3,0-6.1-0.1-9.3-0.4c-42.1-4-44.9-11.2-45-12l0-0.2l24.7-68.2h90.1v59.1l-0.2,0.2
				C250.9,443.6,228.1,465,191,465z M138.3,452.3c0.7,1,6.2,7.1,43.5,10.7c39.7,3.8,65.2-18,68-20.5v-56.8h-87.4L138.3,452.3z"/>
		</g>
	</g>
	<g>
		<polygon points="463.3,336.6 463.3,250.2 595.1,250.2 		"/>
		<path d="M462.6,338.1v-88.7h135.2L462.6,338.1z M464.1,251v84.1L592.4,251H464.1z"/>
	</g>
	<g>
		<path d="M864.3,248.4c-25.7,59.8-51.4,119.7-77,179.5c4.8,4.6,34.4,32.4,80,29.9c45.1-2.5,71.4-32.7,75.7-37.9
			C916.7,362.7,890.5,305.6,864.3,248.4z"/>
		<path d="M861.5,461.9c-41.4,0-69.2-23.7-77-31.2l-2-1.9l81.7-190.3l83.4,182l-1.6,1.9c-7.2,8.6-34.2,36.8-78.5,39.3
			C865.4,461.9,863.4,461.9,861.5,461.9z M792,426.9c9.7,8.8,36.5,29,75,26.9c38.3-2.1,62.6-25,71.2-34.5l-73.8-161.1L792,426.9z"/>
	</g>
	<g>
		<path d="M1523.6,316.1c0.2,46.4,0.4,92.8,0.6,139.2c-8-0.8-22.3-3.2-37.2-12.2c-19.1-11.4-28.8-27-32.8-34.4
			C1477.3,377.9,1500.4,347,1523.6,316.1z"/>
		<path d="M1528.2,459.7l-4.4-0.4c-13.7-1.3-27.2-5.7-38.9-12.8c-18.1-10.9-28.6-25.5-34.3-35.9l-1.2-2.2l78.1-104.2L1528.2,459.7z
			 M1458.9,409.1c5.4,9.3,14.8,21.5,30.1,30.6c9.5,5.7,20.2,9.5,31.2,11.1l-0.5-122.8L1458.9,409.1z"/>
	</g>
	<g>
		<path d="M1542.3,668c-21.7,36-43.4,72.1-65.1,108.1c4,2.8,29.1,19.5,67.6,18c38.1-1.5,60.3-19.7,64-22.8
			C1586.5,736.8,1564.4,702.4,1542.3,668z"/>
		<path d="M1539.9,798.2c-34.9,0-58.4-14.3-64.9-18.8l-3.1-2.1l70.3-116.8l71.8,111.7l-2.7,2.3c-6.1,5.2-29,22.3-66.4,23.7
			C1543.2,798.1,1541.5,798.2,1539.9,798.2z M1482.6,774.8c9.2,5.7,31.1,16.5,62,15.3c30.6-1.2,50.6-13.5,58.8-19.7l-61-94.9
			L1482.6,774.8z"/>
	</g>
	<g>
		<path d="M1208,592.7c-0.2,9.3-0.5,18.7-0.7,28c29.9,0,59.8,0,89.7,0c-11.4-11-22.8-22-34.2-33
			C1244.6,589.5,1226.3,591.1,1208,592.7z"/>
		<path d="M1306.9,624.8h-103.7l0.9-35.7l60.2-5.4L1306.9,624.8z M1211.4,616.8h75.8l-25.8-24.9l-49.5,4.4L1211.4,616.8z"/>
	</g>
	<g>
		<path d="M767.7,630.6c16.5,0.4,33,0.8,49.5,1.2c-0.2-15.9-0.4-31.7-0.6-47.6c-7,3.5-15.6,8.7-24.4,16.5
			C780,611.3,772.4,622.4,767.7,630.6z"/>
		<path d="M822.8,637.5l-64.6-1.6l4.6-8.1c6.8-11.8,15.4-22.4,25.6-31.3c7.7-6.8,16.4-12.6,25.6-17.3l8-4L822.8,637.5z M777.7,625.2
			l33.9,0.8l-0.4-32.5c-5.4,3.3-10.5,7.1-15.3,11.3C789,610.9,782.9,617.7,777.7,625.2z"/>
	</g>
	<g>
		<path d="M497.3,685.5l-81.2-2.2c-1.2,7.9-2.6,24.5,4.3,43.7c6.7,18.6,17.9,30.3,23.8,35.6C461.9,736.9,479.6,711.2,497.3,685.5z"
			/>
		<path d="M445,769.9l-4.1-3.7c-7.8-7.1-18.6-19.5-25.1-37.5c-6.7-18.5-6.1-35.3-4.5-46l0.6-4.2l94.2,2.5L445,769.9z M420.3,688.2
			c-1,9.6-0.6,22.8,4.6,37.2c4.8,13.4,12.2,23.2,18.6,29.9l44.9-65.2L420.3,688.2z"/>
	</g>
	<g>
		<polygon points="110.1,733.7 110.1,772 85.8,744.3 		"/>
		<path d="M113.3,780.5l-32.8-37.3l32.8-14.3V780.5z M91.1,745.5l15.9,18v-24.9L91.1,745.5z"/>
	</g>
	<g>
		<path d="M162.7,1060.4c-1.5,11.6-3,23.2-4.5,34.8l59,35.4c9.4-3.2,27.2-10.7,43.8-27.5c16.6-16.8,23.8-34.8,26.9-44.2
			C246.1,1059.4,204.4,1059.9,162.7,1060.4z"/>
		<path d="M216.9,1134.1l-62.1-37.2l5.1-39.6l132.4-1.5l-1.4,4.2c-5.5,17-15.1,32.7-27.6,45.4c-12.5,12.7-28.1,22.5-45,28.3
			L216.9,1134.1z M161.6,1093.5l55.9,33.6c15.4-5.5,29.6-14.5,41.1-26.2c10.8-11,19.3-24.3,24.6-38.7l-117.8,1.4L161.6,1093.5z"/>
	</g>
	<g>
		<path d="M483.3,1038.8c-17.2,17.6-34.4,35.2-51.6,52.7c4.5,7,12.2,17.3,24.5,26.6c10.3,7.8,20.3,12.3,27.5,14.8
			C483.6,1101.5,483.4,1070.2,483.3,1038.8z"/>
		<path d="M486.9,1137.4l-4.3-1.5c-10.2-3.6-19.8-8.8-28.4-15.3c-10-7.6-18.5-16.8-25.2-27.4l-1.4-2.1l58.8-60.1L486.9,1137.4z
			 M435.8,1091.9c6.1,9.1,13.6,17,22.3,23.6c6.9,5.2,14.4,9.5,22.4,12.7l-0.4-81.7L435.8,1091.9z"/>
	</g>
	<g>
		<path d="M552.2,1036.6c28.7-0.6,57.4-1.2,86.1-1.8c-1.5,8-4,17.9-8.5,28.7c-5.7,13.5-12.6,23.9-18.3,31.3
			C591.7,1075.4,572,1056,552.2,1036.6z"/>
		<path d="M611.7,1099.5l-67.1-66l97.6-2.1l-0.7,3.8c-1.8,10.1-4.8,19.9-8.7,29.4c-4.8,11.4-11.1,22.2-18.8,32L611.7,1099.5z
			 M559.8,1039.6l51.2,50.3c6.3-8.6,11.6-17.9,15.8-27.7c3.3-7.8,5.8-15.9,7.6-24.2L559.8,1039.6z"/>
	</g>
	<g>
		<path d="M865.5,1033.4c-24.3,25-48.7,50-73,75c5.3,4.7,32.2,27.8,73,26.4c39.5-1.3,64.3-24.7,69.6-29.9
			C911.8,1081.1,888.6,1057.3,865.5,1033.4z"/>
		<path d="M861.9,1138.9c-37.2,0-62.7-19.1-72.1-27.5l-3.1-2.8l78.7-81l75.2,77.4l-2.8,2.8c-9,8.9-34.1,29.7-72.2,31
			C864.3,1138.9,863.1,1138.9,861.9,1138.9z M798.3,1108.2c10.9,8.9,34.3,23.8,67,22.7c31.9-1.1,53.9-16.9,64-26l-63.9-65.8
			L798.3,1108.2z"/>
	</g>
	<g>
		<path d="M1263.5,926.9l-100.1,69.4l149.6,3.1c-2.3-9.1-6.3-21.3-14-34.2C1287.3,945.6,1272.8,933.5,1263.5,926.9z"/>
		<path d="M1318.1,1003.4L1151,1000l112.5-78l2.3,1.6c15,10.6,27.2,23.9,36.5,39.5c6.5,10.9,11.4,22.8,14.5,35.3L1318.1,1003.4z
			 M1175.7,992.5l132,2.7c-2.9-9.9-7-19.3-12.2-28.1c-8.2-13.8-19-25.7-32-35.4L1175.7,992.5z"/>
	</g>
	<g>
		<path d="M1608.7,937c-20.4,28.6-40.9,57.1-61.3,85.7c24.9,26.4,49.7,52.8,74.6,79.2c5.2-5.3,32.7-34.4,31.7-79.2
			C1652.4,970.5,1613.5,940.6,1608.7,937z"/>
		<path d="M1621.9,1107.6l-79.7-84.6l65.6-91.6l3.3,2.4c7.6,5.6,45.3,36.2,46.5,88.8c1,44.1-24.8,74-32.8,82.1L1621.9,1107.6z
			 M1552.5,1022.4l69.4,73.7c9.3-10.5,28.5-36.6,27.7-73.3c-1-43.6-29.1-70.9-40.1-80.1L1552.5,1022.4z"/>
	</g>
	<g>
		<path d="M930.5,1102.8"/>
	</g>
	<g>
		<polygon points="176.7,1264.3 176.7,1355.3 83.9,1355.3 		"/>
		<path d="M180.7,1359.3H74.2l106.5-104.4V1359.3z M93.7,1351.3h79.1v-77.5L93.7,1351.3z"/>
	</g>
	<g>
		<path d="M444.8,1441.4c53.5-0.4,107-0.8,160.6-1.2c-6.2,6.5-16.8,16-32.4,23.2c-19,8.8-36.3,9.9-45.8,9.8
			c-11.5,0.3-32.5-0.9-54.9-12.2C460.1,1454.8,451.1,1447.4,444.8,1441.4z"/>
		<path d="M524.2,1477.1c-18.8,0-37.4-4.4-53.8-12.7c-10.4-5.3-20-12.1-28.4-20.2l-7-6.8l179.7-1.4l-6.5,6.8
			c-9.6,10.1-20.9,18.2-33.6,24.1c-14.7,6.8-31.2,10.3-47.5,10.1C526.2,1477.1,525.2,1477.1,524.2,1477.1z M455.3,1445.3
			c5.8,4.7,12.1,8.7,18.8,12.1c16.1,8.2,34.4,12.2,53,11.8c15.3,0.1,30.6-3.1,44.2-9.4c8.7-4,16.8-9.2,24-15.5L455.3,1445.3z"/>
	</g>
	<g>
		<path d="M815.8,1389.5h96.6l33,49.3c-2.9,3.7-33.9,41.6-84.9,39c-44.8-2.3-70.6-34.1-74.4-39
			C796,1422.3,805.9,1405.9,815.8,1389.5z"/>
		<path d="M865.5,1481.8c-1.7,0-3.5,0-5.3-0.1c-44.1-2.3-70.3-31.6-77.4-40.5l-1.7-2.2l32.3-53.5h101l35.8,53.4l-1.8,2.3
			C945.2,1445.5,915,1481.8,865.5,1481.8z M790.9,1438.4c8.4,10,32.1,33.4,69.8,35.4c43.6,2.3,72-26.4,79.7-35.3l-30.1-45H818
			L790.9,1438.4z"/>
	</g>
	<g>
		<path d="M1291.9,1294.2l-41.2,41.4c19.9,20.2,39.9,40.4,59.8,60.5c2.7-11.4,6.1-32.4,0.5-57.7
			C1306.5,1318.2,1298,1303.2,1291.9,1294.2z"/>
		<path d="M1312.7,1404.1l-67.7-68.5l47.4-47.7l2.7,4c9.4,13.9,16.1,29.3,19.7,45.6c4.3,19.4,4.1,40-0.5,59.5L1312.7,1404.1z
			 M1256.3,1335.6l51.8,52.4c2.9-16.2,2.5-32.9-1-48.8c-3.1-13.8-8.4-26.8-15.9-38.8L1256.3,1335.6z"/>
	</g>
	<g>
		<path d="M1532.1,1323c38.8-1.1,77.5-2.2,116.3-3.3c3.6,6.5,16.2,31.1,9.7,62.7c-5.5,26.8-21.6,43-27.6,48.6
			C1597.7,1395,1564.9,1359,1532.1,1323z"/>
		<path d="M1630.2,1436.6l-107-117.4l127.4-3.6l1.2,2.1c5.2,9.4,16.5,34.4,10.1,65.4c-5.3,25.9-20.3,42.9-28.8,50.7L1630.2,1436.6z
			 M1540.9,1326.7l89.8,98.5c7.9-8,19.2-22.6,23.5-43.7c5.4-26.3-3.1-48-8.2-57.9L1540.9,1326.7z"/>
	</g>
	<g>
		<rect x="1200.1" y="706.9" transform="matrix(0.3575 -0.9339 0.9339 0.3575 65.3217 1611.8445)" width="8" height="103.1"/>
	</g>
	<polygon class="st0" points="1167.9,313.6 1251.3,313.6 1251.3,436.4 	"/>
</g>
</svg>
